<svg width="260" height="120" viewBox="0 0 260 120" fill="none" xmlns="http://www.w3.org/2000/svg">
<path d="M229.8 11.4175C220.953 8.51594 212.902 8.24339 204.596 7.59347C194.424 6.78004 192.067 10.5411 194.076 20.1053C196.42 31.3132 196.277 43.41 195.686 55.0329C195.686 55.0665 195.686 55.1755 195.703 55.1923C195.72 55.1923 195.782 55.0665 195.816 55.0329C208.089 45.1668 207.326 68.8069 207.422 76.8239C207.485 81.2894 206.961 87.9688 204.76 92.4469C210.881 91.3777 216.89 92.5098 222.966 93.0214C240.262 94.4889 249.809 88.6523 256.476 72.7441C257.881 69.3981 258.866 65.6034 259.185 62.1442C261.478 38.0891 253.029 19.0571 229.804 11.4175H229.8ZM232.542 48.0348C232.048 53.1503 229.368 58.6179 223.41 58.2993C216.856 57.9345 218.865 52.7981 218.022 48.1145C219.439 43.171 216.554 37.5608 223.888 36.2693C228.24 35.5062 233.02 42.9152 232.542 48.0348Z" fill="white"/>
<path d="M202.915 59.7248C202.856 59.3306 202.755 58.9365 202.697 58.5675C202.512 57.4899 201.98 56.1649 200.919 55.9553C199.858 55.7456 199.359 56.4123 198.613 56.9113C190.29 62.4376 181.392 63.5152 171.618 63.9932C169.476 64.0981 167.354 64.0478 165.912 62.3706C164.993 61.3013 164.981 59.9638 164.943 58.6011C164.524 43.5189 165.408 29.5898 171.74 15.7194C172.436 14.1973 173.379 12.9227 173.664 11.3042C173.945 9.68568 173.916 7.99591 172.583 6.85123C170.583 5.12791 168.138 5.77783 165.698 6.22648C158.93 7.4676 152.553 7.45921 145.722 6.14261C143.11 5.63945 140.129 4.52412 137.525 5.79878C134.921 7.07345 134.699 10.2643 134.993 12.7508C135.286 15.2372 136.288 17.1534 137.068 19.4176C141.991 33.6905 144.012 47.5022 140.695 62.2699C138.917 70.1821 135.278 76.8909 133.865 84.7653C133.596 86.258 133.751 87.78 134.603 89.0002C136.447 91.6418 139.248 91.2057 141.991 90.7529C159.148 87.9226 175.295 88.1406 192.306 91.4154C194.147 91.7676 195.887 92.2078 197.72 92.1324C199.548 92.0527 201.447 91.1722 202.391 89.8472C203.338 88.5222 203.435 87.3608 203.59 86.0022C204.609 77.0879 204.29 68.5552 202.927 59.729L202.915 59.7248Z" fill="white"/>
<path d="M133.881 24.1558C133.944 24.2522 133.995 24.3319 134.041 24.4283C134.041 24.4283 134.041 24.3948 134.024 24.3654C134.804 26.3571 134.246 25.0195 133.881 24.16V24.1558Z" fill="white"/>
<path d="M134.917 26.7848C134.297 25.2711 133.944 24.4116 133.768 23.9629C133.814 24.0091 133.848 24.0761 133.865 24.1223C133.802 23.9797 133.739 23.8371 133.689 23.7407C133.705 23.7868 133.722 23.8539 133.752 23.9168C129.081 15.5141 121.764 7.79897 112.615 6.15952C100.266 3.94981 91.3689 6.05889 83.1632 11.4553C75.1504 16.7258 69.0748 24.4661 65.3346 33.2965C65.2969 33.3846 65.2591 33.4684 65.2256 33.5565C61.1542 43.2549 59.7873 53.9554 61.7999 64.2827C64.1816 76.5052 70.6178 86.3462 84.4169 90.8536C103.038 96.9293 115.516 89.34 128.351 76.6646C128.556 76.4591 128.795 76.044 128.909 75.9308C129.034 75.805 129.022 75.8176 129.051 75.7547C130.422 74.0817 131.617 72.2619 132.863 70.5721C132.909 70.5092 132.879 70.2074 132.909 70.157C141.215 59.0918 138.075 34.5921 134.917 26.7806V26.7848ZM98.8408 57.5823C91.7295 58.1861 89.1005 53.7415 89.0669 47.3011C89.0208 37.8333 97.6122 26.7387 106.921 26.4661C114.032 26.2439 115.017 31.5187 115.097 36.5587C115.256 46.6805 108.782 56.7563 98.8366 57.5865L98.8408 57.5823Z" fill="white"/>
<path d="M65.3177 11.4177C64.4246 16.8392 63.8502 21.8917 64.8733 27.2797C63.2967 30.0219 61.6363 33.3553 60.4874 36.8775C57.523 36.064 55.3552 34.1017 53.0281 31.9339C47.5604 26.8311 36.7677 26.4202 34.0255 33.8292C31.6187 40.3325 36.8306 42.4374 41.9796 41.5778C48.5626 40.4625 50.94 42.4541 51.6234 48.8946C52.0847 53.2008 52.1811 57.4231 51.6402 61.5029C50.7806 67.9265 48.6758 68.9957 42.7762 66.111C40.3233 64.916 38.1514 61.2345 34.9312 63.721C31.7109 66.2074 33.3043 69.8888 33.8955 73.0126C34.7551 77.4907 35.9207 80.6984 37.7069 84.7614C38.4868 86.5308 39.2206 88.7782 37.8662 90.6273C36.5287 92.4764 33.8494 92.0949 32.1428 91.5205C23.4214 88.5225 16.7588 91.0886 7.33712 90.5309C0.770906 90.1494 -2.02162 84.7781 1.59692 78.8283C14.0459 58.5049 11.0353 37.2674 3.12737 15.6232C0.418697 8.19325 3.2238 4.4489 11.4169 4.96045C19.6268 5.47199 27.8534 6.49089 36.3023 6.25189C41.7867 6.09256 47.0153 5.27911 52.0218 2.5369C55.3845 0.704566 58.6383 -1.2871 62.4162 1.08613C66.1941 3.47613 66.0012 7.35046 65.3177 11.4177Z" fill="white"/>
<path d="M14.7586 115.3C14.7586 115.861 14.6119 116.419 14.3183 116.973C14.0248 117.526 13.6013 118.033 13.0479 118.49C12.4944 118.947 11.8277 119.312 11.0478 119.589C10.2679 119.862 9.3874 120 8.40624 120C6.8171 120 5.4418 119.669 4.28034 119.006C3.11889 118.344 2.22159 117.421 1.59264 116.247C0.959498 115.073 0.64502 113.723 0.64502 112.197C0.64502 111.052 0.833706 110 1.21108 109.035C1.58844 108.071 2.11257 107.228 2.79183 106.511C3.4711 105.794 4.25938 105.236 5.16506 104.838C6.07075 104.44 7.04771 104.243 8.10015 104.243C8.75845 104.243 9.29515 104.301 9.70187 104.415C10.1086 104.528 10.4398 104.645 10.6872 104.763C10.9346 104.88 11.1484 104.939 11.3246 104.939C11.53 104.939 11.6977 104.884 11.8319 104.775C11.9619 104.666 12.1003 104.557 12.2386 104.452C12.377 104.348 12.5531 104.293 12.7669 104.293C12.943 104.293 13.0898 104.352 13.2072 104.465C13.3246 104.578 13.421 104.771 13.5007 105.039L14.5993 108.809C14.6622 109.027 14.637 109.224 14.5196 109.4C14.4022 109.576 14.2345 109.689 14.0123 109.748C13.7691 109.803 13.551 109.79 13.354 109.698C13.1569 109.61 13.0017 109.442 12.8969 109.19C12.5363 108.339 12.138 107.677 11.7061 107.203C11.2742 106.729 10.8214 106.402 10.3476 106.213C9.87378 106.025 9.39579 105.932 8.90521 105.932C8.38528 105.932 7.92404 106.058 7.51732 106.306C7.1106 106.553 6.76259 106.914 6.47746 107.383C6.19234 107.853 5.9785 108.419 5.82755 109.081C5.6766 109.744 5.60532 110.494 5.60532 111.325C5.60532 112.679 5.78562 113.811 6.15041 114.717C6.51101 115.622 7.01417 116.302 7.65569 116.75C8.29722 117.199 9.03938 117.425 9.88636 117.425C10.6243 117.425 11.3036 117.237 11.92 116.855C12.5363 116.474 13.0479 115.916 13.4546 115.178C13.5762 114.952 13.7062 114.801 13.8487 114.729C13.9913 114.658 14.1464 114.641 14.3183 114.675C14.4819 114.704 14.5993 114.771 14.6706 114.884C14.7418 114.993 14.7754 115.136 14.7754 115.316L14.7586 115.3Z" fill="white"/>
<path d="M22.0966 108.985C23.3041 108.985 24.3566 109.215 25.2581 109.672C26.1596 110.13 26.8598 110.771 27.3588 111.593C27.8577 112.415 28.1093 113.375 28.1093 114.469C28.1093 115.476 27.8451 116.39 27.321 117.207C26.7969 118.025 26.0715 118.671 25.1449 119.149C24.2182 119.627 23.1448 119.866 21.9246 119.866C20.7045 119.866 19.6646 119.631 18.7631 119.17C17.8616 118.704 17.1614 118.058 16.6583 117.237C16.1593 116.415 15.9077 115.463 15.9077 114.385C15.9077 113.308 16.1719 112.436 16.696 111.622C17.2201 110.809 17.9455 110.167 18.8722 109.693C19.7988 109.22 20.8722 108.985 22.0924 108.985H22.0966ZM22.8723 118.323C23.1406 118.26 23.3461 118.071 23.4886 117.757C23.6312 117.446 23.6941 116.989 23.6815 116.394C23.6689 115.798 23.5599 115.044 23.3628 114.125C23.1784 113.245 22.9687 112.528 22.7381 111.974C22.5075 111.421 22.2559 111.023 21.9875 110.784C21.7192 110.54 21.4383 110.457 21.1447 110.528C20.8764 110.591 20.6709 110.779 20.5284 111.094C20.3858 111.404 20.3229 111.857 20.3439 112.452C20.3607 113.044 20.4655 113.803 20.6584 114.725C20.8429 115.597 21.0525 116.314 21.2873 116.872C21.5221 117.43 21.7737 117.828 22.0379 118.063C22.3062 118.302 22.5829 118.386 22.8723 118.323Z" fill="white"/>
<path d="M35.4051 117.324C35.4051 117.58 35.4429 117.773 35.5183 117.911C35.5938 118.045 35.7238 118.125 35.9167 118.146L37.011 118.284C37.2249 118.305 37.3758 118.377 37.4639 118.498C37.5519 118.62 37.5981 118.762 37.5981 118.926C37.5981 119.358 37.3381 119.576 36.8224 119.576H30.2016C29.9668 119.576 29.7823 119.521 29.644 119.412C29.5056 119.303 29.4343 119.152 29.4343 118.959C29.4343 118.783 29.4804 118.637 29.5727 118.528C29.6649 118.419 29.8117 118.33 30.0213 118.268L30.2981 118.184C30.5245 118.112 30.6796 118.012 30.7677 117.886C30.8516 117.76 30.8935 117.58 30.8935 117.354V112.028C30.8935 111.894 30.8599 111.777 30.7887 111.676C30.7174 111.576 30.579 111.479 30.3736 111.387L29.9794 111.207C29.7111 111.081 29.5224 110.955 29.4218 110.838C29.3211 110.72 29.2666 110.586 29.2666 110.439C29.2666 110.267 29.3295 110.129 29.4511 110.02C29.5727 109.911 29.7698 109.856 30.0297 109.856H31.8285L30.9145 110.196V109.877C30.9145 109.735 30.8516 109.588 30.7216 109.441C30.5958 109.29 30.4448 109.123 30.2729 108.93C30.101 108.737 29.9543 108.506 29.8243 108.234C29.6985 107.961 29.6314 107.63 29.6314 107.24C29.6314 106.276 30.0172 105.496 30.7929 104.905C31.5686 104.313 32.6587 104.016 34.0718 104.016C34.9733 104.016 35.7322 104.154 36.3486 104.427C36.9649 104.699 37.4345 105.06 37.749 105.513C38.0635 105.965 38.2228 106.452 38.2228 106.976C38.2228 107.559 38.0551 108.003 37.7239 108.305C37.3884 108.611 36.9607 108.762 36.4366 108.762C35.8412 108.762 35.3632 108.59 35.011 108.246C34.6588 107.903 34.4785 107.437 34.4785 106.858V105.986C34.4785 105.697 34.3904 105.479 34.2185 105.341C34.0466 105.202 33.8244 105.131 33.5644 105.131C33.2583 105.131 33.0319 105.223 32.8768 105.404C32.7258 105.584 32.6461 105.84 32.6461 106.175C32.6461 106.531 32.7258 106.85 32.8852 107.135C33.0445 107.42 33.2458 107.676 33.4806 107.911C33.7154 108.146 33.9544 108.368 34.1934 108.582C34.4324 108.796 34.6294 109.009 34.7888 109.219C34.9481 109.433 35.0278 109.659 35.0278 109.898V110.485L34.5582 109.856H37.0614C37.2794 109.856 37.4555 109.903 37.5897 109.999C37.7197 110.095 37.7868 110.23 37.7868 110.41C37.7868 110.678 37.6568 110.909 37.3926 111.089C37.1285 111.274 36.6966 111.366 36.0928 111.366H35.4009V117.328L35.4051 117.324ZM45.1371 117.324C45.1371 117.58 45.1748 117.773 45.2503 117.911C45.3257 118.045 45.4599 118.125 45.6486 118.146L46.7472 118.284C46.961 118.305 47.112 118.377 47.2 118.498C47.2881 118.62 47.3342 118.762 47.3342 118.926C47.3342 119.358 47.0742 119.576 46.5585 119.576H39.9378C39.7029 119.576 39.5185 119.521 39.3801 119.412C39.2417 119.303 39.1746 119.152 39.1746 118.959C39.1746 118.783 39.2208 118.637 39.313 118.528C39.4053 118.419 39.5562 118.33 39.7616 118.268L40.0384 118.184C40.2648 118.112 40.4199 118.012 40.508 117.886C40.5919 117.76 40.6338 117.58 40.6338 117.354V112.028C40.6338 111.894 40.5961 111.777 40.529 111.676C40.4577 111.576 40.3193 111.479 40.1139 111.387L39.7197 111.207C39.4514 111.081 39.2627 110.955 39.1621 110.838C39.0614 110.72 39.0069 110.586 39.0069 110.439C39.0069 110.267 39.0698 110.129 39.1914 110.02C39.313 109.911 39.5101 109.856 39.77 109.856H41.5688L40.6548 110.196V109.877C40.6548 109.735 40.5919 109.588 40.4619 109.441C40.3361 109.29 40.1851 109.123 40.0132 108.93C39.8413 108.737 39.6946 108.506 39.5646 108.234C39.4388 107.961 39.3717 107.63 39.3717 107.24C39.3717 106.276 39.7575 105.496 40.5332 104.905C41.3089 104.313 42.399 104.016 43.8121 104.016C44.7136 104.016 45.4725 104.154 46.0889 104.427C46.7052 104.699 47.1749 105.06 47.4893 105.513C47.8038 105.965 47.9631 106.452 47.9631 106.976C47.9631 107.559 47.7954 108.003 47.4642 108.305C47.1329 108.607 46.701 108.762 46.1769 108.762C45.5815 108.762 45.1035 108.59 44.7513 108.246C44.3991 107.903 44.2188 107.437 44.2188 106.858V105.986C44.2188 105.697 44.1307 105.479 43.9588 105.341C43.7869 105.202 43.5689 105.131 43.3047 105.131C42.9986 105.131 42.7722 105.223 42.6171 105.404C42.4619 105.584 42.3865 105.84 42.3865 106.175C42.3865 106.531 42.4661 106.85 42.6255 107.135C42.7848 107.42 42.9861 107.676 43.2209 107.911C43.4557 108.146 43.6947 108.368 43.9337 108.582C44.1727 108.796 44.3697 109.009 44.5291 109.219C44.6884 109.433 44.7681 109.659 44.7681 109.898V110.485L44.2985 109.856H46.8017C47.0239 109.856 47.1958 109.903 47.33 109.999C47.46 110.095 47.5271 110.23 47.5271 110.41C47.5271 110.678 47.3971 110.909 47.1329 111.089C46.8688 111.274 46.4369 111.366 45.8331 111.366H45.1413V117.328L45.1371 117.324Z" fill="white"/>
<path d="M59.519 113.094C59.519 113.588 59.3848 113.974 59.1165 114.251C58.8481 114.524 58.4582 114.662 57.955 114.662H51.6404V113.555H54.4832C54.8732 113.555 55.0702 113.37 55.0702 113.001C55.0702 112.108 54.9654 111.467 54.7599 111.085C54.5545 110.704 54.2819 110.511 53.9381 110.511C53.6907 110.511 53.4643 110.603 53.2672 110.788C53.0702 110.972 52.9108 111.253 52.7934 111.635C52.676 112.016 52.6173 112.494 52.6173 113.077C52.6173 114.368 52.9066 115.316 53.4895 115.916C54.0723 116.515 54.8648 116.817 55.8753 116.817C56.3449 116.817 56.7684 116.763 57.1541 116.658C57.5357 116.553 57.9131 116.335 58.2821 116.008C58.4875 115.823 58.6426 115.698 58.7517 115.635C58.8565 115.572 58.9613 115.538 59.0619 115.538C59.2045 115.538 59.3093 115.609 59.3764 115.752C59.4435 115.895 59.4771 116.067 59.4771 116.272C59.4771 116.905 59.2632 117.496 58.8313 118.046C58.4036 118.595 57.8041 119.039 57.0409 119.371C56.2778 119.702 55.3889 119.87 54.3742 119.87C53.2882 119.87 52.3112 119.656 51.4475 119.224C50.5837 118.792 49.8961 118.197 49.3929 117.425C48.8898 116.654 48.6382 115.756 48.6382 114.725C48.6382 113.568 48.8688 112.561 49.33 111.702C49.7913 110.842 50.4621 110.175 51.3468 109.702C52.2316 109.228 53.2966 108.989 54.5461 108.989C55.6447 108.989 56.5671 109.165 57.3051 109.521C58.0431 109.878 58.5965 110.364 58.9655 110.98C59.3345 111.597 59.519 112.305 59.519 113.098V113.094Z" fill="white"/>
<path d="M71.4438 113.094C71.4438 113.588 71.3096 113.974 71.0413 114.251C70.7729 114.524 70.383 114.662 69.8798 114.662H63.5652V113.555H66.408C66.798 113.555 66.995 113.37 66.995 113.001C66.995 112.108 66.8902 111.467 66.6847 111.085C66.4793 110.704 66.2067 110.511 65.8629 110.511C65.6155 110.511 65.3891 110.603 65.192 110.788C64.995 110.972 64.8356 111.253 64.7182 111.635C64.6008 112.016 64.5421 112.494 64.5421 113.077C64.5421 114.368 64.8315 115.316 65.4143 115.916C65.9971 116.515 66.7896 116.817 67.8001 116.817C68.2697 116.817 68.6932 116.763 69.0789 116.658C69.4605 116.553 69.8379 116.335 70.2069 116.008C70.4123 115.823 70.5674 115.698 70.6765 115.635C70.7813 115.572 70.8861 115.538 70.9867 115.538C71.1293 115.538 71.2341 115.609 71.3012 115.752C71.3683 115.895 71.4019 116.067 71.4019 116.272C71.4019 116.905 71.188 117.496 70.7561 118.046C70.3285 118.595 69.7289 119.039 68.9657 119.371C68.2026 119.702 67.3137 119.87 66.299 119.87C65.213 119.87 64.236 119.656 63.3723 119.224C62.5085 118.792 61.8209 118.197 61.3177 117.425C60.8146 116.654 60.563 115.756 60.563 114.725C60.563 113.568 60.7936 112.561 61.2548 111.702C61.7161 110.842 62.3869 110.175 63.2717 109.702C64.1564 109.228 65.2214 108.989 66.4709 108.989C67.5695 108.989 68.4919 109.165 69.2299 109.521C69.9678 109.878 70.5213 110.364 70.8903 110.98C71.2593 111.597 71.4438 112.305 71.4438 113.098V113.094Z" fill="white"/>
<path d="M81.5529 117.983C80.8484 117.983 80.2111 117.802 79.6367 117.446C79.0622 117.09 78.6052 116.612 78.2698 116.016C77.9343 115.421 77.7666 114.775 77.7666 114.083C77.7666 113.391 77.9343 112.725 78.2698 112.142C78.6052 111.563 79.0622 111.094 79.6367 110.746C80.2111 110.393 80.8484 110.217 81.5529 110.217C82.2573 110.217 82.9282 110.393 83.5026 110.746C84.077 111.098 84.5341 111.563 84.8695 112.142C85.205 112.72 85.3727 113.37 85.3727 114.083C85.3727 114.796 85.205 115.421 84.8695 116.016C84.5341 116.612 84.077 117.09 83.5026 117.446C82.9282 117.802 82.2783 117.983 81.5529 117.983Z" fill="white"/>
<path d="M107.281 116.004C107.281 117.069 106.82 117.928 105.902 118.587C104.984 119.245 103.562 119.572 101.638 119.572H93.0337C92.7234 119.572 92.4928 119.505 92.3419 119.375C92.1909 119.245 92.1196 119.069 92.1196 118.846C92.1196 118.465 92.3041 118.201 92.6731 118.058L93.0798 117.911C93.2643 117.84 93.4027 117.752 93.4907 117.639C93.5788 117.53 93.6249 117.387 93.6249 117.207V107.026C93.6249 106.85 93.5788 106.704 93.4907 106.595C93.4027 106.486 93.2643 106.393 93.0798 106.322L92.6731 106.175C92.3041 106.033 92.1196 105.773 92.1196 105.387C92.1196 105.161 92.1951 104.984 92.3419 104.854C92.4928 104.724 92.7234 104.662 93.0337 104.662H99.7718C101.156 104.662 102.346 104.846 103.34 105.215C104.334 105.584 105.097 106.1 105.629 106.758C106.162 107.416 106.426 108.192 106.426 109.081C106.426 109.798 106.212 110.431 105.78 110.98C105.353 111.53 104.728 111.962 103.91 112.276C103.093 112.591 102.103 112.746 100.942 112.746L101.42 112.31C102.585 112.31 103.604 112.465 104.481 112.771C105.357 113.081 106.04 113.513 106.535 114.071C107.03 114.628 107.273 115.274 107.273 116.004H107.281ZM99.9563 113.354H97.2099V112.171H99.4364C99.9605 112.171 100.401 112.071 100.753 111.874C101.105 111.676 101.365 111.366 101.541 110.951C101.717 110.536 101.801 110.008 101.801 109.37C101.801 108.683 101.684 108.091 101.449 107.597C101.214 107.102 100.879 106.72 100.443 106.452C100.007 106.184 99.4825 106.045 98.8703 106.045H98.56V116.918C98.56 117.35 98.6817 117.668 98.9207 117.878C99.1597 118.083 99.5077 118.188 99.9521 118.188H100.493C100.891 118.188 101.231 118.096 101.52 117.916C101.81 117.735 102.028 117.467 102.187 117.119C102.342 116.767 102.422 116.343 102.422 115.849C102.422 115.069 102.204 114.456 101.768 114.016C101.332 113.576 100.728 113.358 99.9521 113.358L99.9563 113.354Z" fill="white"/>
<path d="M108.241 117.299C108.241 116.326 108.681 115.559 109.562 114.993C110.443 114.427 111.675 114.146 113.269 114.146C113.688 114.146 114.053 114.175 114.367 114.23C114.682 114.289 114.933 114.368 115.134 114.473L114.774 115.4C114.623 115.316 114.485 115.253 114.355 115.219C114.225 115.182 114.078 115.165 113.923 115.165C113.575 115.165 113.298 115.282 113.097 115.509C112.895 115.739 112.795 116.071 112.795 116.502C112.795 116.955 112.895 117.303 113.092 117.542C113.29 117.781 113.554 117.899 113.881 117.899C114.086 117.899 114.279 117.853 114.459 117.756C114.64 117.66 114.778 117.546 114.87 117.421L115.126 118.272C114.786 118.775 114.292 119.165 113.642 119.442C112.992 119.718 112.3 119.857 111.562 119.857C110.568 119.857 109.767 119.614 109.159 119.123C108.551 118.632 108.25 118.024 108.25 117.291L108.241 117.299ZM114.745 118.108V117.865L114.405 117.853V110.976C114.405 110.708 114.334 110.49 114.187 110.326C114.04 110.163 113.843 110.079 113.596 110.079C113.411 110.079 113.252 110.125 113.113 110.213C112.975 110.301 112.904 110.418 112.904 110.569V111.731C112.904 112.326 112.698 112.787 112.292 113.114C111.885 113.442 111.298 113.605 110.539 113.605C109.893 113.605 109.411 113.467 109.097 113.194C108.782 112.922 108.623 112.54 108.623 112.049C108.623 111.559 108.837 111.114 109.26 110.645C109.688 110.175 110.325 109.785 111.18 109.475C112.036 109.165 113.113 109.005 114.413 109.005C115.919 109.005 117.034 109.282 117.768 109.831C118.501 110.381 118.866 111.131 118.866 112.083V117.173C118.866 117.307 118.9 117.421 118.967 117.509C119.034 117.597 119.139 117.643 119.281 117.643C119.403 117.643 119.499 117.609 119.575 117.546C119.65 117.484 119.717 117.416 119.78 117.354C119.831 117.303 119.881 117.261 119.935 117.228C119.99 117.19 120.053 117.173 120.12 117.173C120.242 117.173 120.325 117.219 120.38 117.307C120.434 117.396 120.46 117.509 120.46 117.643C120.46 117.953 120.346 118.284 120.12 118.628C119.894 118.972 119.554 119.266 119.101 119.505C118.648 119.744 118.091 119.865 117.424 119.865C116.636 119.865 115.99 119.697 115.491 119.366C114.992 119.035 114.74 118.616 114.74 118.108H114.745Z" fill="white"/>
<path d="M121.89 119.568C121.604 119.568 121.399 119.513 121.273 119.396C121.147 119.282 121.08 119.127 121.08 118.926C121.08 118.784 121.114 118.662 121.185 118.553C121.256 118.448 121.374 118.36 121.537 118.289L121.772 118.184C121.877 118.134 121.952 118.05 121.994 117.932C122.036 117.815 122.057 117.614 122.057 117.333V106.834C122.057 106.607 122.028 106.444 121.965 106.351C121.906 106.255 121.814 106.188 121.692 106.154L121.458 106.079C121.307 106.028 121.202 105.957 121.135 105.865C121.068 105.773 121.034 105.655 121.034 105.513C121.034 105.341 121.08 105.207 121.173 105.11C121.265 105.01 121.441 104.909 121.692 104.812L124.057 103.898C124.418 103.756 124.711 103.655 124.934 103.588C125.156 103.525 125.374 103.492 125.588 103.492C125.906 103.492 126.15 103.58 126.317 103.764C126.485 103.945 126.569 104.175 126.569 104.452V117.333C126.569 117.618 126.59 117.815 126.632 117.928C126.674 118.041 126.749 118.125 126.854 118.184L127.068 118.301C127.303 118.436 127.42 118.633 127.42 118.888C127.42 119.341 127.148 119.568 126.598 119.568H121.881H121.89ZM125.265 114.926L129.269 111.71C129.512 111.517 129.621 111.32 129.6 111.115C129.579 110.909 129.437 110.75 129.173 110.637L128.909 110.519C128.766 110.456 128.67 110.381 128.615 110.289C128.561 110.2 128.535 110.083 128.535 109.941C128.535 109.743 128.603 109.584 128.741 109.471C128.879 109.358 129.064 109.299 129.299 109.299H133.45C133.689 109.299 133.881 109.353 134.02 109.463C134.158 109.572 134.23 109.718 134.23 109.903C134.23 110.087 134.175 110.242 134.066 110.364C133.957 110.49 133.718 110.599 133.349 110.699C132.972 110.804 132.619 110.951 132.284 111.136C131.949 111.32 131.546 111.601 131.068 111.978L125.818 116.066L125.265 114.918V114.926ZM129.705 111.806L133.559 117.568C133.672 117.731 133.777 117.857 133.873 117.949C133.97 118.041 134.083 118.134 134.209 118.226C134.372 118.339 134.502 118.456 134.598 118.582C134.695 118.708 134.741 118.838 134.741 118.981C134.741 119.157 134.67 119.299 134.531 119.408C134.393 119.517 134.209 119.568 133.974 119.568H128.971C128.766 119.568 128.603 119.513 128.477 119.396C128.351 119.282 128.292 119.132 128.292 118.939C128.292 118.817 128.317 118.716 128.368 118.633C128.418 118.553 128.498 118.473 128.611 118.402L128.812 118.285C128.925 118.222 128.988 118.129 128.997 118.012C129.009 117.895 128.93 117.714 128.766 117.475L126.787 114.461L129.705 111.798V111.806Z" fill="white"/>
<path d="M145.961 113.094C145.961 113.588 145.827 113.974 145.559 114.251C145.291 114.524 144.901 114.662 144.397 114.662H138.083V113.555H140.926C141.316 113.555 141.513 113.37 141.513 113.001C141.513 112.108 141.408 111.467 141.202 111.085C140.997 110.704 140.724 110.511 140.381 110.511C140.133 110.511 139.907 110.603 139.71 110.788C139.513 110.972 139.353 111.253 139.236 111.635C139.118 112.016 139.06 112.494 139.06 113.077C139.06 114.368 139.349 115.316 139.932 115.916C140.515 116.515 141.307 116.817 142.318 116.817C142.787 116.817 143.211 116.763 143.597 116.658C143.978 116.553 144.355 116.335 144.724 116.008C144.93 115.823 145.085 115.698 145.194 115.635C145.299 115.572 145.404 115.538 145.504 115.538C145.647 115.538 145.752 115.609 145.819 115.752C145.886 115.895 145.919 116.067 145.919 116.272C145.919 116.905 145.706 117.496 145.274 118.046C144.846 118.595 144.246 119.039 143.483 119.371C142.72 119.702 141.831 119.87 140.817 119.87C139.731 119.87 138.754 119.656 137.89 119.224C137.026 118.792 136.338 118.197 135.835 117.425C135.332 116.654 135.081 115.756 135.081 114.725C135.081 113.568 135.311 112.561 135.772 111.702C136.234 110.842 136.905 110.175 137.789 109.702C138.674 109.228 139.739 108.989 140.988 108.989C142.087 108.989 143.01 109.165 143.747 109.521C144.485 109.878 145.039 110.364 145.408 110.98C145.777 111.597 145.961 112.305 145.961 113.098V113.094Z" fill="white"/>
<path d="M152.159 110.339C151.739 110.339 151.429 110.427 151.228 110.603C151.027 110.779 150.926 110.993 150.926 111.24C150.926 111.391 150.955 111.53 151.01 111.66C151.069 111.79 151.199 111.911 151.404 112.016C151.609 112.125 151.936 112.217 152.385 112.293C153.706 112.515 154.708 112.804 155.4 113.169C156.088 113.534 156.557 113.966 156.809 114.465C157.06 114.96 157.186 115.526 157.186 116.159C157.186 117.316 156.784 118.222 155.979 118.88C155.173 119.538 153.983 119.865 152.406 119.865C151.865 119.865 151.433 119.823 151.115 119.74C150.792 119.656 150.532 119.568 150.339 119.484C150.142 119.4 149.97 119.354 149.811 119.354C149.639 119.354 149.5 119.396 149.383 119.484C149.27 119.568 149.157 119.656 149.043 119.74C148.93 119.823 148.783 119.865 148.607 119.865C148.431 119.865 148.297 119.815 148.209 119.71C148.121 119.61 148.037 119.425 147.957 119.161L147.404 117.274C147.291 116.897 147.257 116.603 147.307 116.385C147.358 116.167 147.492 116.016 147.714 115.932C147.941 115.848 148.142 115.844 148.31 115.924C148.477 116.004 148.645 116.159 148.8 116.394C149.127 116.867 149.467 117.262 149.819 117.576C150.171 117.89 150.54 118.125 150.926 118.28C151.312 118.436 151.71 118.515 152.125 118.515C152.599 118.515 152.955 118.427 153.194 118.251C153.433 118.075 153.551 117.836 153.551 117.538C153.551 117.354 153.505 117.194 153.408 117.06C153.312 116.926 153.119 116.804 152.821 116.691C152.523 116.578 152.083 116.473 151.484 116.368C150.456 116.184 149.635 115.92 149.031 115.576C148.427 115.232 147.991 114.804 147.727 114.297C147.463 113.79 147.333 113.199 147.333 112.523C147.333 111.806 147.525 111.186 147.911 110.653C148.297 110.121 148.825 109.714 149.496 109.425C150.167 109.136 150.93 108.989 151.79 108.989C152.352 108.989 152.792 109.035 153.115 109.123C153.438 109.211 153.702 109.299 153.903 109.387C154.104 109.475 154.306 109.521 154.503 109.521C154.7 109.521 154.855 109.479 154.989 109.387C155.119 109.299 155.249 109.211 155.379 109.123C155.505 109.035 155.656 108.989 155.828 108.989C155.983 108.989 156.117 109.047 156.222 109.161C156.327 109.274 156.406 109.471 156.457 109.748L156.788 111.567C156.851 111.928 156.859 112.201 156.805 112.381C156.75 112.561 156.62 112.695 156.415 112.779C156.192 112.871 155.999 112.871 155.828 112.775C155.656 112.679 155.484 112.507 155.308 112.259C154.813 111.542 154.289 111.043 153.748 110.762C153.207 110.481 152.679 110.343 152.167 110.343L152.159 110.339Z" fill="white"/>
<path d="M167.409 117.983C166.704 117.983 166.067 117.802 165.493 117.446C164.918 117.09 164.461 116.612 164.126 116.016C163.79 115.421 163.623 114.775 163.623 114.083C163.623 113.391 163.79 112.725 164.126 112.142C164.461 111.563 164.918 111.094 165.493 110.746C166.067 110.393 166.704 110.217 167.409 110.217C168.113 110.217 168.784 110.393 169.359 110.746C169.933 111.098 170.39 111.563 170.725 112.142C171.061 112.72 171.229 113.37 171.229 114.083C171.229 114.796 171.061 115.421 170.725 116.016C170.39 116.612 169.933 117.09 169.359 117.446C168.784 117.802 168.134 117.983 167.409 117.983Z" fill="white"/>
<path d="M188.411 114.477L186.856 114.7L190.038 106.096C190.244 105.55 190.479 105.173 190.747 104.968C191.011 104.762 191.384 104.657 191.858 104.657H195.988C196.303 104.657 196.533 104.72 196.68 104.85C196.831 104.976 196.902 105.156 196.902 105.383C196.902 105.584 196.856 105.747 196.76 105.877C196.663 106.007 196.529 106.108 196.361 106.171L195.955 106.318C195.732 106.397 195.586 106.494 195.514 106.615C195.439 106.737 195.41 106.922 195.422 107.169L196.093 117.094C196.106 117.358 196.152 117.542 196.227 117.647C196.303 117.752 196.428 117.84 196.605 117.903L197.011 118.05C197.175 118.108 197.301 118.201 197.384 118.326C197.468 118.456 197.51 118.612 197.51 118.796C197.51 119.014 197.435 119.199 197.288 119.345C197.141 119.492 196.906 119.563 196.596 119.563H190.655C190.336 119.563 190.101 119.496 189.95 119.366C189.799 119.236 189.728 119.06 189.728 118.838C189.728 118.654 189.77 118.494 189.85 118.36C189.929 118.226 190.076 118.121 190.282 118.05L190.697 117.903C190.91 117.823 191.053 117.727 191.129 117.609C191.204 117.492 191.233 117.316 191.221 117.081L190.432 106.553L191.829 106.435L187.548 117.999C187.351 118.54 187.145 118.884 186.936 119.031C186.726 119.182 186.474 119.253 186.185 119.253C185.971 119.253 185.778 119.228 185.606 119.178C185.434 119.127 185.271 119.01 185.116 118.821C184.961 118.633 184.805 118.335 184.642 117.92L180.264 106.846L181.606 106.611L180.797 116.704C180.768 117.043 180.843 117.303 181.015 117.479C181.187 117.656 181.405 117.819 181.669 117.97L181.967 118.142C182.088 118.205 182.181 118.293 182.248 118.398C182.315 118.503 182.348 118.637 182.348 118.8C182.348 119.027 182.277 119.211 182.13 119.35C181.984 119.488 181.757 119.555 181.443 119.555H178.302C177.988 119.555 177.761 119.488 177.615 119.358C177.468 119.228 177.396 119.052 177.396 118.83C177.396 118.607 177.455 118.44 177.568 118.322C177.682 118.205 177.833 118.1 178.017 118.008L178.239 117.899C178.462 117.794 178.65 117.647 178.81 117.463C178.969 117.278 179.065 117.018 179.09 116.687L179.816 107.639C179.849 107.219 179.828 106.913 179.753 106.724C179.673 106.532 179.522 106.393 179.296 106.309L178.889 106.163C178.705 106.091 178.566 105.991 178.474 105.865C178.382 105.739 178.336 105.576 178.336 105.374C178.336 104.892 178.642 104.649 179.25 104.649H183.338C183.778 104.649 184.13 104.741 184.399 104.926C184.663 105.11 184.906 105.488 185.128 106.054L188.407 114.465L188.411 114.477Z" fill="white"/>
<path d="M198.622 117.299C198.622 116.326 199.062 115.559 199.942 114.993C200.823 114.427 202.056 114.146 203.649 114.146C204.068 114.146 204.433 114.175 204.748 114.23C205.062 114.289 205.314 114.368 205.515 114.473L205.154 115.4C205.003 115.316 204.865 115.253 204.735 115.219C204.605 115.182 204.458 115.165 204.303 115.165C203.955 115.165 203.678 115.282 203.477 115.509C203.276 115.739 203.175 116.071 203.175 116.502C203.175 116.955 203.276 117.303 203.473 117.542C203.67 117.781 203.934 117.899 204.261 117.899C204.467 117.899 204.659 117.853 204.84 117.756C205.02 117.66 205.158 117.546 205.251 117.421L205.506 118.272C205.167 118.775 204.672 119.165 204.022 119.442C203.372 119.718 202.68 119.857 201.942 119.857C200.949 119.857 200.148 119.614 199.54 119.123C198.932 118.632 198.63 118.024 198.63 117.291L198.622 117.299ZM205.125 118.108V117.865L204.785 117.853V110.976C204.785 110.708 204.714 110.49 204.567 110.326C204.42 110.163 204.223 110.079 203.976 110.079C203.792 110.079 203.632 110.125 203.494 110.213C203.355 110.301 203.284 110.418 203.284 110.569V111.731C203.284 112.326 203.079 112.787 202.672 113.114C202.265 113.442 201.678 113.605 200.919 113.605C200.274 113.605 199.791 113.467 199.477 113.194C199.162 112.922 199.003 112.54 199.003 112.049C199.003 111.559 199.217 111.114 199.64 110.645C200.068 110.175 200.706 109.785 201.561 109.475C202.416 109.165 203.494 109.005 204.794 109.005C206.299 109.005 207.414 109.282 208.148 109.831C208.882 110.381 209.247 111.131 209.247 112.083V117.173C209.247 117.307 209.28 117.421 209.347 117.509C209.414 117.597 209.519 117.643 209.662 117.643C209.783 117.643 209.88 117.609 209.955 117.546C210.031 117.484 210.098 117.416 210.161 117.354C210.211 117.303 210.261 117.261 210.316 117.228C210.37 117.19 210.433 117.173 210.5 117.173C210.622 117.173 210.706 117.219 210.76 117.307C210.815 117.396 210.84 117.509 210.84 117.643C210.84 117.953 210.727 118.284 210.5 118.628C210.274 118.972 209.934 119.266 209.481 119.505C209.029 119.744 208.471 119.865 207.804 119.865C207.016 119.865 206.37 119.697 205.871 119.366C205.372 119.035 205.121 118.616 205.121 118.108H205.125Z" fill="white"/>
<path d="M211.867 110.691L211.527 110.553C211.372 110.49 211.255 110.406 211.175 110.309C211.095 110.209 211.058 110.087 211.058 109.949C211.058 109.743 211.129 109.584 211.267 109.475C211.406 109.366 211.586 109.312 211.804 109.312H212.391C212.525 109.312 212.651 109.278 212.768 109.207C212.886 109.135 213.037 109.01 213.221 108.825L214.957 107.068C215.192 106.834 215.41 106.662 215.611 106.548C215.812 106.435 216.005 106.376 216.19 106.376C216.395 106.376 216.559 106.444 216.672 106.578C216.789 106.712 216.848 106.909 216.848 107.165V115.702C216.848 116.222 216.936 116.616 217.116 116.884C217.293 117.152 217.548 117.287 217.884 117.287C218.152 117.287 218.362 117.22 218.509 117.085C218.655 116.951 218.773 116.796 218.861 116.624C218.949 116.452 219.045 116.297 219.142 116.163C219.242 116.029 219.376 115.962 219.544 115.962C219.687 115.962 219.8 116.012 219.884 116.108C219.968 116.209 220.01 116.377 220.01 116.62C220.01 117.224 219.838 117.773 219.49 118.264C219.142 118.758 218.664 119.148 218.052 119.442C217.439 119.731 216.748 119.878 215.963 119.878C214.806 119.878 213.913 119.601 213.28 119.043C212.647 118.486 212.332 117.643 212.332 116.515V111.391C212.332 111.186 212.295 111.035 212.219 110.943C212.144 110.85 212.026 110.771 211.863 110.699L211.867 110.691ZM215.297 110.817V109.303H219.184C219.406 109.303 219.578 109.353 219.712 109.446C219.842 109.542 219.909 109.676 219.909 109.857C219.909 110.125 219.779 110.351 219.515 110.536C219.251 110.72 218.819 110.813 218.215 110.813H215.297V110.817Z" fill="white"/>
<path d="M231.465 112.276C231.465 112.817 231.259 113.274 230.853 113.651C230.446 114.029 229.901 114.217 229.217 114.217C228.534 114.217 228.06 114.041 227.733 113.689C227.402 113.337 227.238 112.888 227.238 112.343V112.004C227.238 111.542 227.142 111.177 226.949 110.913C226.756 110.645 226.504 110.515 226.194 110.515C225.947 110.515 225.712 110.607 225.498 110.792C225.28 110.976 225.104 111.257 224.97 111.639C224.836 112.02 224.768 112.498 224.768 113.081C224.768 113.903 224.907 114.595 225.188 115.148C225.469 115.702 225.854 116.121 226.341 116.398C226.827 116.675 227.389 116.817 228.014 116.817C228.467 116.817 228.878 116.763 229.242 116.654C229.607 116.545 229.972 116.331 230.333 116.008C230.538 115.823 230.693 115.698 230.802 115.635C230.907 115.572 231.012 115.538 231.112 115.538C231.255 115.538 231.36 115.609 231.427 115.752C231.494 115.895 231.528 116.067 231.528 116.272C231.528 116.905 231.318 117.496 230.894 118.046C230.471 118.595 229.884 119.039 229.133 119.371C228.379 119.706 227.507 119.87 226.513 119.87C225.427 119.87 224.454 119.656 223.59 119.224C222.727 118.792 222.043 118.197 221.54 117.425C221.037 116.654 220.785 115.756 220.785 114.725C220.785 113.626 221.028 112.641 221.515 111.777C222.001 110.913 222.689 110.23 223.582 109.735C224.471 109.24 225.523 108.989 226.739 108.989C227.712 108.989 228.551 109.136 229.259 109.433C229.964 109.727 230.509 110.125 230.894 110.62C231.276 111.115 231.469 111.672 231.469 112.28L231.465 112.276Z" fill="white"/>
<path d="M238.236 104.452V117.333C238.236 117.618 238.257 117.815 238.299 117.928C238.341 118.041 238.417 118.125 238.522 118.184L238.735 118.301C238.97 118.436 239.088 118.633 239.088 118.888C239.088 119.341 238.815 119.568 238.266 119.568H233.549C233.264 119.568 233.058 119.513 232.932 119.396C232.807 119.282 232.739 119.127 232.739 118.926C232.739 118.784 232.773 118.662 232.844 118.553C232.916 118.448 233.033 118.36 233.196 118.289L233.431 118.184C233.536 118.134 233.612 118.05 233.654 117.932C233.695 117.815 233.716 117.614 233.716 117.333V106.834C233.716 106.607 233.687 106.444 233.624 106.351C233.565 106.255 233.473 106.188 233.352 106.154L233.117 106.079C232.966 106.028 232.861 105.957 232.794 105.865C232.727 105.773 232.693 105.655 232.693 105.513C232.693 105.341 232.739 105.207 232.832 105.11C232.924 105.01 233.1 104.909 233.352 104.812L235.716 103.898C236.077 103.756 236.371 103.655 236.593 103.588C236.815 103.525 237.033 103.492 237.247 103.492C237.566 103.492 237.809 103.58 237.977 103.764C238.144 103.945 238.228 104.175 238.228 104.452H238.236ZM237.855 112.544L237.218 111.865L237.536 111.567C238.538 110.607 239.406 109.941 240.144 109.559C240.882 109.177 241.562 108.989 242.178 108.989C243.13 108.989 243.897 109.303 244.476 109.932C245.058 110.561 245.348 111.383 245.348 112.398V117.337C245.348 117.622 245.369 117.819 245.411 117.937C245.453 118.054 245.528 118.138 245.633 118.188L245.868 118.293C246.031 118.364 246.149 118.452 246.22 118.557C246.291 118.666 246.325 118.788 246.325 118.93C246.325 119.127 246.262 119.287 246.132 119.4C246.006 119.513 245.796 119.572 245.515 119.572H240.798C240.253 119.572 239.977 119.345 239.977 118.893C239.977 118.637 240.094 118.444 240.329 118.306L240.543 118.188C240.647 118.129 240.723 118.046 240.765 117.932C240.807 117.819 240.828 117.622 240.828 117.337V113.035C240.828 112.582 240.723 112.238 240.513 112.012C240.304 111.785 240.01 111.672 239.637 111.672C239.402 111.672 239.159 111.718 238.903 111.811C238.647 111.903 238.421 112.037 238.22 112.213L237.847 112.544H237.855Z" fill="white"/>
<path d="M247.319 117.299C247.319 116.326 247.759 115.559 248.64 114.993C249.52 114.427 250.753 114.146 252.346 114.146C252.766 114.146 253.13 114.175 253.445 114.23C253.759 114.289 254.011 114.368 254.212 114.473L253.852 115.4C253.701 115.316 253.562 115.253 253.432 115.219C253.302 115.182 253.155 115.165 253 115.165C252.652 115.165 252.376 115.282 252.174 115.509C251.973 115.739 251.872 116.071 251.872 116.502C251.872 116.955 251.973 117.303 252.17 117.542C252.367 117.781 252.631 117.899 252.958 117.899C253.164 117.899 253.357 117.853 253.537 117.756C253.717 117.66 253.856 117.546 253.948 117.421L254.204 118.272C253.864 118.775 253.369 119.165 252.719 119.442C252.069 119.718 251.378 119.857 250.64 119.857C249.646 119.857 248.845 119.614 248.237 119.123C247.629 118.632 247.327 118.024 247.327 117.291L247.319 117.299ZM253.822 118.108V117.865L253.483 117.853V110.976C253.483 110.708 253.411 110.49 253.264 110.326C253.118 110.163 252.921 110.079 252.673 110.079C252.489 110.079 252.329 110.125 252.191 110.213C252.053 110.301 251.981 110.418 251.981 110.569V111.731C251.981 112.326 251.776 112.787 251.369 113.114C250.963 113.442 250.376 113.605 249.617 113.605C248.971 113.605 248.489 113.467 248.174 113.194C247.86 112.922 247.7 112.54 247.7 112.049C247.7 111.559 247.914 111.114 248.338 110.645C248.765 110.175 249.403 109.785 250.258 109.475C251.113 109.165 252.191 109.005 253.491 109.005C254.996 109.005 256.112 109.282 256.845 109.831C257.579 110.381 257.944 111.131 257.944 112.083V117.173C257.944 117.307 257.977 117.421 258.044 117.509C258.112 117.597 258.216 117.643 258.359 117.643C258.481 117.643 258.577 117.609 258.652 117.546C258.728 117.484 258.795 117.416 258.858 117.354C258.908 117.303 258.959 117.261 259.013 117.228C259.068 117.19 259.13 117.173 259.198 117.173C259.319 117.173 259.403 117.219 259.458 117.307C259.512 117.396 259.537 117.509 259.537 117.643C259.537 117.953 259.424 118.284 259.198 118.628C258.971 118.972 258.632 119.266 258.179 119.505C257.726 119.744 257.168 119.865 256.501 119.865C255.713 119.865 255.067 119.697 254.569 119.366C254.07 119.035 253.818 118.616 253.818 118.108H253.822Z" fill="white"/>
</svg>
