<svg width="117" height="42" viewBox="0 0 117 42" fill="none" xmlns="http://www.w3.org/2000/svg">
<path d="M103.512 5.14199C99.5262 3.83513 95.9002 3.71209 92.1586 3.4194C87.5781 3.054 86.5154 4.74863 87.4196 9.05698C88.4748 14.1054 88.4114 19.5547 88.1448 24.7896C88.1448 24.8045 88.1448 24.8549 88.1523 24.8623C88.1597 24.8623 88.1877 24.8045 88.2026 24.7896C93.732 20.3452 93.3872 30.9939 93.43 34.6051C93.458 36.6147 93.2212 39.6237 92.2313 41.6427C94.9886 41.1617 97.6955 41.6707 100.432 41.9018C108.223 42.5618 112.524 39.935 115.525 32.7687C116.157 31.2605 116.603 29.551 116.747 27.9943C117.781 17.1591 113.974 8.58531 103.512 5.14572V5.14199ZM104.746 21.6353C104.524 23.9395 103.318 26.4041 100.632 26.2605C97.6806 26.0946 98.5848 23.7829 98.2044 21.6725C98.8439 19.4466 97.5445 16.9186 100.846 16.337C102.807 15.9921 104.961 19.331 104.746 21.6371V21.6353Z" fill="#800029"/>
<path d="M91.4014 26.9018C91.3734 26.7247 91.3305 26.5458 91.3026 26.3817C91.2205 25.897 90.9801 25.2985 90.5009 25.2035C90.0218 25.1084 89.8 25.4085 89.4607 25.6341C85.7116 28.1229 81.7053 28.6095 77.3 28.8239C76.3361 28.8705 75.3779 28.8481 74.7291 28.0931C74.3153 27.6103 74.3097 27.01 74.2929 26.3966C74.1046 19.6032 74.5017 13.328 77.354 7.07895C77.6672 6.3929 78.0923 5.8187 78.2209 5.08977C78.3477 4.36083 78.3328 3.60021 77.7343 3.0838C76.8339 2.30826 75.7321 2.60096 74.634 2.8023C71.5841 3.36158 68.7112 3.35599 65.6352 2.76315C64.4588 2.5357 63.1165 2.03422 61.9439 2.60841C60.7713 3.18261 60.6706 4.61997 60.803 5.7404C60.9353 6.86083 61.3865 7.724 61.737 8.74376C63.9555 15.1718 64.8652 21.3947 63.3701 28.0465C62.5684 31.611 60.9316 34.633 60.2921 38.1807C60.171 38.8537 60.24 39.5379 60.6259 40.0879C61.4573 41.2773 62.7176 41.0815 63.9536 40.8783C71.6829 39.6032 78.9555 39.702 86.6195 41.1766C87.4472 41.3351 88.234 41.5346 89.058 41.4991C89.882 41.4637 90.7358 41.0666 91.1627 40.4701C91.5897 39.8735 91.6325 39.3515 91.7034 38.7381C92.162 34.7225 92.0184 30.8783 91.4032 26.9037L91.4014 26.9018Z" fill="#800029"/>
<path d="M60.3052 10.8803C60.3331 10.9232 60.3555 10.9586 60.3779 11.0015C60.3779 11.0015 60.3779 10.9865 60.3704 10.9735C60.7228 11.8702 60.4711 11.268 60.3052 10.8803Z" fill="#800029"/>
<path d="M60.7713 12.0641C60.4916 11.3818 60.3332 10.994 60.2549 10.7927C60.2773 10.815 60.2903 10.843 60.2978 10.8654C60.2698 10.8001 60.24 10.7367 60.2195 10.6939C60.2269 10.7162 60.2344 10.7442 60.2474 10.7722C58.1426 6.98767 54.8466 3.51265 50.7265 2.77253C45.1635 1.77701 41.1553 2.72779 37.4603 5.15694C33.8511 7.53017 31.1143 11.0164 29.429 14.9947C29.4122 15.0339 29.3955 15.073 29.3787 15.1122C27.5461 19.4821 26.929 24.3012 27.8351 28.9526C28.907 34.4578 31.806 38.8911 38.0234 40.9231C46.4107 43.6599 52.0334 40.2408 57.8127 34.5324C57.9059 34.4392 58.014 34.2527 58.0644 34.2024C58.1221 34.1446 58.1147 34.1521 58.1296 34.1241C58.7467 33.3709 59.2855 32.5507 59.8466 31.79C59.869 31.7621 59.8541 31.6241 59.869 31.6036C63.6106 26.6204 62.1956 15.5839 60.7731 12.0641H60.7713ZM44.5204 25.9381C41.3175 26.2102 40.1337 24.208 40.1188 21.3072C40.0964 17.0417 43.9685 12.0436 48.1613 11.9224C51.3641 11.8217 51.8097 14.1987 51.8451 16.4675C51.9178 21.0275 49.0021 25.5652 44.5204 25.9381Z" fill="#800029"/>
<path d="M29.4198 5.14203C29.0171 7.58423 28.7598 9.86052 29.2184 12.2859C28.5082 13.522 27.7606 15.0227 27.2442 16.6092C25.9094 16.2438 24.9325 15.3601 23.8829 14.3833C21.4202 12.0846 16.5581 11.8982 15.324 15.2371C14.239 18.1659 16.588 19.1148 18.9071 18.727C21.8732 18.2237 22.9433 19.1223 23.2509 22.0231C23.4597 23.9619 23.5026 25.8654 23.2583 27.7035C22.8706 30.5969 21.9235 31.0779 19.2651 29.7785C18.1595 29.2397 17.1827 27.5805 15.7323 28.7009C14.2818 29.8214 14.9996 31.4806 15.2662 32.8881C15.654 34.9052 16.1778 36.35 16.9832 38.1808C17.3355 38.9787 17.6655 39.991 17.0559 40.8225C16.4519 41.6558 15.2457 41.4824 14.4776 41.2251C10.5496 39.8754 7.54807 41.0313 3.30497 40.7796C0.34636 40.6081 -0.910163 38.1882 0.719217 35.5093C6.32697 26.3538 4.96977 16.7882 1.409 7.038C0.187897 3.69162 1.45188 2.00445 5.14315 2.23375C8.84188 2.46306 12.5462 2.92353 16.3531 2.81541C18.8232 2.7427 21.1778 2.3773 23.4336 1.14315C24.9492 0.317272 26.4127 -0.579442 28.1148 0.488789C29.8169 1.56634 29.7311 3.31131 29.4216 5.14203H29.4198Z" fill="#800029"/>
</svg>
